<?xml version="1.0" encoding="UTF-8" standalone="no"?>
<!-- Created with Inkscape (http://www.inkscape.org/) -->

<svg
   xmlns:dc="http://purl.org/dc/elements/1.1/"
   xmlns:cc="http://creativecommons.org/ns#"
   xmlns:rdf="http://www.w3.org/1999/02/22-rdf-syntax-ns#"
   xmlns:svg="http://www.w3.org/2000/svg"
   xmlns="http://www.w3.org/2000/svg"
   xmlns:xlink="http://www.w3.org/1999/xlink"
   xmlns:sodipodi="http://sodipodi.sourceforge.net/DTD/sodipodi-0.dtd"
   xmlns:inkscape="http://www.inkscape.org/namespaces/inkscape"
   width="273.5148mm"
   height="231.32178mm"
   viewBox="0 0 273.5148 231.32178"
   version="1.1"
   id="svg8"
   inkscape:version="0.92.5 (2060ec1f9f, 2020-04-08)"
   sodipodi:docname="dragon-404.svg">
  <defs
     id="defs2">
    <linearGradient
       inkscape:collect="always"
       id="linearGradient1454">
      <stop
         style="stop-color:#2affd5;stop-opacity:1;"
         offset="0"
         id="stop1450" />
      <stop
         style="stop-color:#2affd5;stop-opacity:0;"
         offset="1"
         id="stop1452" />
    </linearGradient>
    <linearGradient
       inkscape:collect="always"
       id="linearGradient1336">
      <stop
         style="stop-color:#ff80b2;stop-opacity:1;"
         offset="0"
         id="stop1332" />
      <stop
         style="stop-color:#ff80b2;stop-opacity:0;"
         offset="1"
         id="stop1334" />
    </linearGradient>
    <linearGradient
       inkscape:collect="always"
       id="linearGradient1108">
      <stop
         style="stop-color:#5974c1;stop-opacity:1;"
         offset="0"
         id="stop1104" />
      <stop
         style="stop-color:#5974c1;stop-opacity:0;"
         offset="1"
         id="stop1106" />
    </linearGradient>
    <linearGradient
       inkscape:collect="always"
       id="linearGradient1045">
      <stop
         style="stop-color:#47a6bc;stop-opacity:1;"
         offset="0"
         id="stop1041" />
      <stop
         style="stop-color:#47a6bc;stop-opacity:0;"
         offset="1"
         id="stop1043" />
    </linearGradient>
    <linearGradient
       inkscape:collect="always"
       id="linearGradient1012">
      <stop
         style="stop-color:#5fd3bc;stop-opacity:1;"
         offset="0"
         id="stop1008" />
      <stop
         style="stop-color:#5fd3bc;stop-opacity:0;"
         offset="1"
         id="stop1010" />
    </linearGradient>
    <linearGradient
       inkscape:collect="always"
       id="linearGradient940">
      <stop
         style="stop-color:#5fd3bc;stop-opacity:1;"
         offset="0"
         id="stop936" />
      <stop
         style="stop-color:#5fd3bc;stop-opacity:0;"
         offset="1"
         id="stop938" />
    </linearGradient>
    <linearGradient
       inkscape:collect="always"
       id="linearGradient915">
      <stop
         style="stop-color:#87aade;stop-opacity:1;"
         offset="0"
         id="stop911" />
      <stop
         style="stop-color:#87aade;stop-opacity:0;"
         offset="1"
         id="stop913" />
    </linearGradient>
    <linearGradient
       inkscape:collect="always"
       xlink:href="#linearGradient915"
       id="linearGradient917"
       x1="114.03773"
       y1="123.85955"
       x2="82.738655"
       y2="194.54109"
       gradientUnits="userSpaceOnUse" />
    <linearGradient
       inkscape:collect="always"
       xlink:href="#linearGradient940"
       id="linearGradient942"
       x1="99.959358"
       y1="70.325317"
       x2="58.425751"
       y2="75.616982"
       gradientUnits="userSpaceOnUse" />
    <linearGradient
       inkscape:collect="always"
       xlink:href="#linearGradient1012"
       id="linearGradient1014"
       x1="140.19737"
       y1="105.01933"
       x2="126.24941"
       y2="176.64583"
       gradientUnits="userSpaceOnUse" />
    <linearGradient
       inkscape:collect="always"
       xlink:href="#linearGradient1045"
       id="linearGradient1047"
       x1="91.272537"
       y1="210.40466"
       x2="91.138908"
       y2="240.20522"
       gradientUnits="userSpaceOnUse" />
    <linearGradient
       inkscape:collect="always"
       xlink:href="#linearGradient1108"
       id="linearGradient1110"
       x1="68.203362"
       y1="82.525826"
       x2="95.682487"
       y2="91.202461"
       gradientUnits="userSpaceOnUse" />
    <linearGradient
       inkscape:collect="always"
       xlink:href="#linearGradient1336"
       id="linearGradient1338"
       x1="-29.949999"
       y1="112.24994"
       x2="74.196121"
       y2="87.815536"
       gradientUnits="userSpaceOnUse" />
    <linearGradient
       inkscape:collect="always"
       xlink:href="#linearGradient1454"
       id="linearGradient1456"
       x1="239.45769"
       y1="269.40439"
       x2="80.3367"
       y2="131.58163"
       gradientUnits="userSpaceOnUse" />
  </defs>
  <sodipodi:namedview
     id="base"
     pagecolor="#ffffff"
     bordercolor="#666666"
     borderopacity="1.0"
     inkscape:pageopacity="0.0"
     inkscape:pageshadow="2"
     inkscape:zoom="0.7"
     inkscape:cx="547.4017"
     inkscape:cy="371.05593"
     inkscape:document-units="mm"
     inkscape:current-layer="layer1"
     showgrid="false"
     fit-margin-top="0"
     fit-margin-left="0"
     fit-margin-right="0"
     fit-margin-bottom="0"
     inkscape:window-width="1280"
     inkscape:window-height="975"
     inkscape:window-x="0"
     inkscape:window-y="25"
     inkscape:window-maximized="1" />
  <metadata
     id="metadata5">
    <rdf:RDF>
      <cc:Work
         rdf:about="">
        <dc:format>image/svg+xml</dc:format>
        <dc:type
           rdf:resource="http://purl.org/dc/dcmitype/StillImage" />
        <dc:title></dc:title>
      </cc:Work>
    </rdf:RDF>
  </metadata>
  <g
     inkscape:label="Capa 1"
     inkscape:groupmode="layer"
     id="layer1"
     transform="translate(44.971959,-24.385079)">
    <path
       style="fill:#87e8d8;fill-opacity:1;stroke:none;stroke-width:0.26458332px;stroke-linecap:butt;stroke-linejoin:miter;stroke-opacity:1"
       d="m 100.49334,199.74132 c 34.88935,-0.93387 124.01306,-11.22532 100.49334,-29.39965 -23.51972,-18.17433 -23.51972,-18.70886 -23.51972,-18.70886 0,0 39.55589,6.949 50.24667,-4.27632 10.69079,-11.22532 -85.52624,-23.51972 -85.52624,-23.51972 0,0 40.67828,-1.57162 57.7553,-11.21418 2.30404,-1.30098 6.4343,-3.49104 5.3203,-5.89107 C 199.56587,94.457463 104.23512,75.72835 19.243405,86.953655 -65.748305,98.178912 21.9161,127.57855 21.9161,127.57855 c 0,0 -74.300927,7.48355 -66.282843,19.77794 8.018087,12.2944 67.351921,16.57072 67.351921,16.57072 0,0 -26.1924131,1.60361 -22.4506399,12.29439 3.7417734,10.69078 65.7415399,24.43559 99.9588019,23.51972 z"
       id="path1165"
       inkscape:connector-curvature="0"
       sodipodi:nodetypes="ascscasscscsa" />
    <g
       id="g1163">
      <path
         sodipodi:nodetypes="csccsscscccc"
         inkscape:connector-curvature="0"
         id="path867-7"
         d="m 96.140876,138.50966 c -9.194197,7.57422 -0.499356,18.52954 3.007007,20.59783 3.506367,2.06831 16.763267,-1.47966 16.763267,-1.47966 1.60631,3.58147 2.08286,7.17859 1.17018,10.79495 0,0 -2.0393,0.14165 -3.65083,1.1468 -1.61155,1.00517 -2.53023,2.90796 -1.75602,4.22028 0.7742,1.31232 0.85555,1.72701 3.60875,1.27305 2.75322,-0.45396 6.70517,-3.12374 5.69297,-6.54288 -0.75476,-2.54956 1.75038,-15.47907 1.70928,-18.50849 -1.43293,-2.47503 -8.63222,-0.97666 -8.63222,-0.97666 0,0 -4.89953,-15.31724 -10.32459,-13.99464 -5.425048,1.32259 -7.587794,3.46942 -7.587794,3.46942 z"
         style="fill:#435ec1;fill-opacity:1;stroke:none;stroke-width:0.26458332px;stroke-linecap:butt;stroke-linejoin:miter;stroke-opacity:1" />
      <path
         sodipodi:nodetypes="csccccccc"
         inkscape:connector-curvature="0"
         id="path886"
         d="m 68.153729,142.11731 c 0,0 -0.801809,0.8018 -0.801809,4.14267 0,3.34087 0.801809,7.61719 0.801809,7.61719 l -2.80633,6.949 c 0,0 -0.801811,8.81989 6.280833,5.87993 l -1.336347,-4.94448 -1.341719,-1.60899 4.014415,-5.74093 c 0,0 1.202712,-15.90253 -4.810852,-12.29439 z"
         style="fill:#435ec1;fill-opacity:1;stroke:none;stroke-width:0.26458332px;stroke-linecap:butt;stroke-linejoin:miter;stroke-opacity:1" />
      <path
         sodipodi:nodetypes="cscscscsscsccccc"
         inkscape:connector-curvature="0"
         id="path831-5"
         d="m 74.196125,87.815538 c 0,0 -5.725428,-25.267602 -18.848406,-34.051914 -13.122976,-8.78431 -22.074025,-6.717819 -22.074025,-6.717819 0,0 13.468186,3.698408 16.18138,13.223014 2.713196,9.52461 -1.26763,17.597843 -1.26763,17.597843 0,0 7.774202,0.17997 10.857543,7.57507 3.083342,7.395097 -5.323273,16.801908 -5.323273,16.801908 0,0 10.390446,-0.5453 13.180976,8.19929 2.790531,8.74457 -5.831561,18.72079 -10.354019,21.02941 -4.522458,2.30863 -12.586671,5.05382 -12.586671,5.05382 0,0 17.675698,1.35857 25.42216,-2.99356 7.746462,-4.35212 9.118438,-7.18222 9.118438,-7.18222 l 0.820326,7.18293 4.086322,-7.86868 6.496659,-22.63017 z"
         style="fill:#47a6bc;fill-opacity:1;stroke:none;stroke-width:0.24653885px;stroke-linecap:butt;stroke-linejoin:miter;stroke-opacity:1" />
      <path
         inkscape:connector-curvature="0"
         id="path919"
         d="m 95.682489,91.202464 c 0,0 9.354431,-21.648833 6.949011,-40.090431 -2.40543,-18.441596 -8.819898,-26.726951 -8.819898,-26.726951 0,0 2.138156,6.147199 0.267272,13.363477 -1.870888,7.216275 -14.432555,4.543581 -16.83798,-0.267272 -2.405428,-4.81085 -3.741775,-6.949006 -3.741775,-6.949006 0,0 1.870887,12.561668 -1.870887,18.976136 -3.741772,6.414469 -7.216278,9.621703 -15.234362,9.621703 -8.018086,0 -11.759858,-6.949009 -11.759858,-6.949009 0,0 6.147197,13.630746 4.543581,19.243408 -1.603618,5.612659 -13.096208,18.174326 -13.096208,18.174326 0,0 2.939965,0 6.414468,1.870888 3.474506,1.870887 11.49259,11.225317 9.621705,16.036167 -1.870887,4.81086 -4.276312,6.94901 -4.276312,6.94901 0,0 5.34539,-1.60362 9.087162,2.40543 3.741775,4.00904 11.225321,16.03617 11.225321,16.03617 0,0 -7.272578,-39.430319 6.612337,-39.705422 13.884912,-0.275106 20.916423,-1.988624 20.916423,-1.988624 z"
         style="fill:#47bfbc;fill-opacity:1;stroke:none;stroke-width:0.26458332px;stroke-linecap:butt;stroke-linejoin:miter;stroke-opacity:1" />
      <path
         sodipodi:nodetypes="cscscscscscscccscscscsscc"
         inkscape:connector-curvature="0"
         id="path1016"
         d="m 86.194423,209.46923 c 0,0 -11.626226,0.53454 -10.958052,-6.28084 0.668173,-6.81537 10.824416,-9.2208 10.824416,-9.2208 0,0 -15.902538,0.13364 -16.036171,9.75534 -0.133636,9.62171 10.289876,7.34991 10.289876,7.34991 0,0 -8.018087,3.07361 -18.040694,-2.53905 -10.022607,-5.61266 -12.561667,-8.01809 -12.561667,-8.01809 0,0 9.888973,10.69078 8.953531,16.30344 -0.935445,5.61266 -12.962573,11.62623 -12.962573,11.62623 0,0 6.414469,-0.66818 10.824417,3.34087 4.409945,4.00904 -4.276315,12.69529 -4.276315,12.69529 0,0 11.091685,-8.81989 15.635269,-2.00452 4.543581,6.81538 8.285356,13.22985 8.285356,13.22985 0,0 -0.133635,-12.56167 2.004522,-16.57071 2.138156,-4.00905 12.962571,1.06907 12.962571,1.06907 0,0 -6.68174,-6.1472 -7.483547,-9.48807 -0.801809,-3.34087 7.617182,-0.93544 7.617182,-0.93544 0,0 -6.781794,-4.8467 -8.018088,-7.21627 -1.603617,-3.0736 0.26727,-6.81538 0.26727,-6.81538 0,0 -2.00452,5.34539 6.280835,6.41447 8.285353,1.06908 10.690779,-6.54811 10.690779,-6.54811 0,0 -4.944484,4.94449 -8.819894,4.00905 -3.875408,-0.93544 -6.280833,-1.73725 -5.879928,-4.67722 0.400905,-2.93996 5.479023,-4.54358 5.479023,-4.54358 z"
         style="fill:#5fd3bc;fill-opacity:1;stroke:none;stroke-width:0.26458332px;stroke-linecap:butt;stroke-linejoin:miter;stroke-opacity:1" />
      <path
         sodipodi:nodetypes="cscscscscscscccscscscsscc"
         inkscape:connector-curvature="0"
         id="path1016-1"
         d="m 86.194422,209.46923 c 0,0 -11.626225,0.53454 -10.958052,-6.28084 0.668174,-6.81537 10.824417,-9.2208 10.824417,-9.2208 0,0 -15.902538,0.13364 -16.036171,9.75534 -0.133636,9.62171 10.289876,7.34991 10.289876,7.34991 0,0 -8.018087,3.07361 -18.040694,-2.53905 -10.022607,-5.61266 -12.561667,-8.01809 -12.561667,-8.01809 0,0 9.888973,10.69078 8.953531,16.30344 -0.935445,5.61267 -12.962573,11.62623 -12.962573,11.62623 0,0 6.41447,-0.66817 10.824417,3.34087 4.409945,4.00905 -4.276315,12.69529 -4.276315,12.69529 0,0 11.091685,-8.81989 15.635269,-2.00452 4.543581,6.81539 8.285355,13.22985 8.285355,13.22985 0,0 -0.133633,-12.56166 2.004523,-16.5707 2.138156,-4.00906 12.962573,1.06907 12.962573,1.06907 0,0 -6.681743,-6.1472 -7.483549,-9.48807 -0.80181,-3.34087 7.617182,-0.93544 7.617182,-0.93544 0,0 -6.781792,-4.8467 -8.018087,-7.21628 -1.603618,-3.0736 0.267269,-6.81538 0.267269,-6.81538 0,0 -2.004521,5.3454 6.280835,6.41447 8.285353,1.06908 10.690779,-6.54811 10.690779,-6.54811 0,0 -4.944484,4.9445 -8.819894,4.00905 -3.875408,-0.93544 -6.280833,-1.73725 -5.879928,-4.67722 0.400904,-2.93996 5.479023,-4.54358 5.479023,-4.54358 z"
         style="fill:url(#linearGradient1047);fill-opacity:1;stroke:none;stroke-width:0.26458332px;stroke-linecap:butt;stroke-linejoin:miter;stroke-opacity:1" />
      <path
         inkscape:connector-curvature="0"
         id="path850"
         d="m 81.642856,122.75298 c 0,0 -5.879931,-2.40542 -6.147199,6.94901 -0.267269,9.35443 21.114288,0.53454 29.132373,-1.33635 8.01809,-1.87088 24.05426,4.27632 31.27054,10.69078 7.21627,6.41447 36.88319,65.48104 -17.90706,70.02462 -54.790252,4.54358 -47.039434,15.7689 -47.039434,15.7689 0,0 -8.552625,-6.68174 22.183369,-18.17433 30.735995,-11.49259 41.426775,-9.08716 41.159505,-20.84702 -0.26727,-11.75986 -15.50164,-27.26149 -15.50164,-27.26149 0,0 -11.49258,6.41447 -21.114285,3.4745 -9.621701,-2.93996 -18.174325,-8.28535 -18.174325,-8.28535 0,0 -7.750815,0.26727 -10.156243,-3.47451 -2.405425,-3.74177 -3.474503,-10.42351 -3.474503,-10.42351 0,0 -2.47632,-12.34192 1.300901,-20.20261 3.777221,-7.86069 14.468001,3.09736 14.468001,3.09736 z"
         style="fill:#5974c1;fill-opacity:1;stroke:none;stroke-width:0.26458332px;stroke-linecap:butt;stroke-linejoin:miter;stroke-opacity:1" />
      <path
         sodipodi:nodetypes="csccscsccscscsc"
         inkscape:connector-curvature="0"
         id="path850-5"
         d="m 81.64286,122.75298 c 0,0 -5.879931,-2.40542 -6.1472,6.94901 -0.267268,9.35443 21.114289,0.53454 29.13237,-1.33635 8.01809,-1.87088 24.05426,4.27632 31.27054,10.69078 7.21627,6.41447 36.88319,65.48104 -17.90706,70.02463 -54.790249,4.54357 -47.039431,15.76889 -47.039431,15.76889 0,0 -7.950483,-5.18464 22.183369,-18.17432 19.207722,-8.27979 45.490082,-4.36176 41.159502,-20.84703 16.88779,-21.82914 -11.60947,-35.81705 -11.60947,-35.81705 0,0 0.86823,-15.07908 -21.98264,-12.34939 -9.989817,1.19334 -17.040398,10.04648 -17.040398,10.04648 0,0 -0.38028,-4.26844 -2.785708,-8.01022 -2.405425,-3.74177 -6.887895,-6.74008 -6.887895,-6.74008 0,0 -3.031678,-4.30809 0.745543,-12.16878 3.777221,-7.86069 6.908478,1.96343 6.908478,1.96343 z"
         style="fill:url(#linearGradient917);fill-opacity:1;stroke:none;stroke-width:0.26458332px;stroke-linecap:butt;stroke-linejoin:miter;stroke-opacity:1" />
      <path
         inkscape:connector-curvature="0"
         id="path919-3"
         d="m 95.682489,91.202464 c 0,0 9.354431,-21.648835 6.949011,-40.090433 -2.40543,-18.441597 -8.819901,-26.726952 -8.819901,-26.726952 0,0 2.13816,6.147199 0.26727,13.363477 -1.87089,7.216275 -14.43255,4.543581 -16.83798,-0.267272 -2.40543,-4.81085 -3.74177,-6.949006 -3.74177,-6.949006 0,0 1.87088,12.561668 -1.87089,18.976136 -3.74177,6.414469 -7.21628,9.621703 -15.23436,9.621703 -8.01809,0 -11.75986,-6.949008 -11.75986,-6.949008 0,0 6.1472,13.630746 4.54358,19.243407 -1.60362,5.61266 -13.09621,18.174328 -13.09621,18.174328 0,0 2.93997,0 6.41447,1.87089 3.47451,1.87088 11.49259,11.225306 9.6217,16.036156 -1.87088,4.81086 -4.27631,6.94901 -4.27631,6.94901 0,0 5.34539,-1.60362 9.08716,2.40543 3.74178,4.00904 11.22533,16.03617 11.22533,16.03617 0,0 -7.27258,-39.430316 6.61233,-39.705416 13.88492,-0.2751 20.91643,-1.98862 20.91643,-1.98862 z"
         style="fill:url(#linearGradient942);fill-opacity:1;stroke:none;stroke-width:0.26458332px;stroke-linecap:butt;stroke-linejoin:miter;stroke-opacity:1" />
      <path
         sodipodi:nodetypes="cscsccsscsssccc"
         inkscape:connector-curvature="0"
         id="path976"
         d="m 72.734561,123.11924 c 0,0 -0.30452,11.91542 15.464382,7.63911 15.768897,-4.27631 28.063297,-18.97613 28.063297,-18.97613 0,0 -0.53454,8.01808 8.8199,10.42351 9.35443,2.40542 18.70886,0.80181 18.70886,0.80181 0,0 -1.60361,2.40542 -0.26726,8.01808 1.33634,5.61266 13.89801,40.89224 3.20723,54.52298 -10.69078,13.63075 -19.24341,16.57071 -25.3906,19.51068 -6.1472,2.93997 -22.450646,5.07812 -22.450646,5.07812 0,0 31.537806,-4.54358 40.357696,-18.4416 8.8199,-13.89801 5.34539,-28.0633 2.40543,-34.21049 -2.93997,-6.1472 -8.01809,-19.51068 -19.24341,-23.51972 -11.22532,-4.00905 -21.64883,-4.00905 -29.666916,-1.06908 -8.018084,2.93996 -13.4196,1.16597 -13.4196,1.16597 -7.851075,-1.52747 -6.421516,-6.77432 -6.588363,-10.94324 z"
         style="fill:#47bfbc;fill-opacity:1;stroke:none;stroke-width:0.26458332px;stroke-linecap:butt;stroke-linejoin:miter;stroke-opacity:1" />
      <path
         sodipodi:nodetypes="cscsccsscsssccc"
         inkscape:connector-curvature="0"
         id="path976-9"
         d="m 72.73456,123.11924 c 0,0 -0.30452,11.91542 15.46439,7.63911 15.76889,-4.27631 28.06329,-18.97613 28.06329,-18.97613 0,0 -0.53454,8.01808 8.8199,10.42351 9.35443,2.40542 18.70886,0.80181 18.70886,0.80181 0,0 -1.60361,2.40542 -0.26726,8.01808 1.33634,5.61266 13.89801,40.89224 3.20723,54.52298 -10.69078,13.63075 -19.24341,16.57071 -25.3906,19.51068 -6.1472,2.93997 -22.45064,5.07812 -22.45064,5.07812 0,0 31.5378,-4.54358 40.35769,-18.4416 8.8199,-13.89801 5.34539,-28.0633 2.40543,-34.21049 -2.93997,-6.1472 -8.01809,-19.51068 -19.24341,-23.51972 -11.22532,-4.00905 -21.64883,-4.00905 -29.66691,-1.06908 -8.01809,2.93996 -13.4196,1.16597 -13.4196,1.16597 -7.85108,-1.52747 -6.42152,-6.77432 -6.58837,-10.94324 z"
         style="fill:url(#linearGradient1014);fill-opacity:1;stroke:none;stroke-width:0.26458332px;stroke-linecap:butt;stroke-linejoin:miter;stroke-opacity:1" />
      <path
         sodipodi:nodetypes="cscscscsscsccccc"
         inkscape:connector-curvature="0"
         id="path831"
         d="m 62.509202,89.571657 c 0,0 -9.781525,-23.704097 -26.412477,-30.885646 C 19.465774,51.504463 9.0714284,54.339286 9.0714284,54.339286 c 0,0 16.4419646,2.267857 20.7886896,11.150295 4.346726,8.882441 0.566965,17.00893 0.566965,17.00893 0,0 9.260417,-0.566965 13.796131,6.236607 4.535713,6.80357 -4.346725,16.630952 -4.346725,16.630952 0,0 12.284225,-1.51191 16.630951,6.61458 4.346726,8.12649 -4.724701,18.52084 -9.827381,21.16667 -5.102678,2.64583 -14.363094,6.04762 -14.363094,6.04762 0,0 21.166666,-0.37798 29.860118,-5.29167 8.693451,-4.91369 9.990515,-7.76022 9.990515,-7.76022 l 1.821241,6.81528 3.929239,-7.94023 5.054512,-22.33584 z"
         style="fill:#5fd3bc;stroke:none;stroke-width:0.26458332px;stroke-linecap:butt;stroke-linejoin:miter;stroke-opacity:1" />
      <path
         sodipodi:nodetypes="cssccscscccc"
         inkscape:connector-curvature="0"
         id="path818"
         d="m 104.51462,103.3658 c 0,0 5.9434,1.21918 6.25773,7.5058 0.31433,6.28662 -5.55759,14.29979 -23.986338,14.99993 -3.650256,0.13868 -5.905752,0.0205 -8.867934,-0.85343 0.50709,-1.53513 -2.458422,-4.69881 -5.183516,-1.89886 -6.141784,-2.76201 -9.529994,-6.45896 -8.768608,-9.69485 1.257323,-5.34363 10.844412,-5.97229 10.844412,-5.97229 0,0 -13.987719,-14.14488 -12.101734,-19.174172 1.722328,-4.592873 6.590398,-12.33149 22.26493,-11.245974 1.489409,0.103146 9.397722,12.464978 9.397722,12.464978 l 4.45727,-7.961345 c 8.688136,7.420266 5.686066,21.830213 5.686066,21.830213 z"
         style="fill:#87aade;stroke:none;stroke-width:0.22003151px;stroke-linecap:butt;stroke-linejoin:miter;stroke-opacity:1" />
      <path
         style="fill:url(#linearGradient1110);fill-opacity:1;stroke:none;stroke-width:0.22003153px;stroke-linecap:butt;stroke-linejoin:miter;stroke-opacity:1"
         d="m 104.51462,103.3658 c 0,0 5.9434,1.21918 6.25773,7.5058 0.31433,6.28662 -5.55759,14.29979 -23.986342,14.99993 -3.65025,0.13868 -5.905748,0.0205 -8.86793,-0.85343 0.50709,-1.53513 -2.458422,-4.69881 -5.183516,-1.89886 -6.141784,-2.76201 -9.529994,-6.45896 -8.768608,-9.69485 1.257323,-5.34363 10.844412,-5.97229 10.844412,-5.97229 0,0 -13.987719,-14.14488 -12.101734,-19.17417 1.722328,-4.59287 6.590398,-12.33149 22.264926,-11.24598 1.48941,0.10315 9.39773,12.46498 9.39773,12.46498 l 4.45727,-7.96134 c 8.688132,7.42026 5.686062,21.83021 5.686062,21.83021 z"
         id="path818-2"
         inkscape:connector-curvature="0"
         sodipodi:nodetypes="cssccscscccc" />
      <path
         sodipodi:nodetypes="csscsc"
         inkscape:connector-curvature="0"
         id="path828"
         d="m 102.50323,109.97443 c -0.52196,-1.3e-4 -0.94516,0.44412 -0.94516,0.99218 0,0.21014 0.74214,0.60734 0.94518,1.05846 0.32653,0.72548 0.53452,1.53735 0.53452,1.53735 0,0 0.41062,-2.04775 0.41062,-2.59581 0,-0.54806 -0.4232,-0.99231 -0.94516,-0.99218 z"
         style="fill:#5974c1;fill-opacity:1;stroke:none;stroke-width:1.76499999;stroke-miterlimit:4;stroke-dasharray:none;stroke-opacity:1" />
      <path
         sodipodi:nodetypes="csscsc"
         inkscape:connector-curvature="0"
         id="path828-6"
         d="m 107.56047,109.6416 c 0.52196,-1.3e-4 0.94516,0.44412 0.94516,0.99218 0,0.21014 -0.74214,0.60734 -0.94518,1.05846 -0.32653,0.72548 -0.53452,1.53735 -0.53452,1.53735 0,0 -0.41062,-2.04775 -0.41062,-2.59581 0,-0.54806 0.4232,-0.99231 0.94516,-0.99218 z"
         style="fill:#5974c1;fill-opacity:1;stroke:none;stroke-width:1.76499999;stroke-miterlimit:4;stroke-dasharray:none;stroke-opacity:1" />
      <path
         inkscape:connector-curvature="0"
         id="path1049"
         d="m 120.61864,155.14981 c 0,0 4.66395,-0.20357 6.33438,-1.874 1.67044,-1.67044 2.6727,-3.60814 2.6727,-3.60814 0,0 -1.46998,4.6104 0.4009,5.47903 1.87089,0.86862 7.55037,0.26726 7.55037,0.26726 0,0 -5.87993,2.2718 -7.2831,5.41221 -1.40316,3.14042 0.60136,6.21402 0.60136,6.21402 0,0 -3.4745,0.33409 -4.67722,1.60362 -1.20271,1.26953 -2.80633,4.54358 -2.80633,4.54358 z"
         style="fill:#5fd3bc;fill-opacity:1;stroke:none;stroke-width:0.26458332px;stroke-linecap:butt;stroke-linejoin:miter;stroke-opacity:1" />
      <path
         sodipodi:nodetypes="csccsscscccc"
         inkscape:connector-curvature="0"
         id="path867"
         d="m 105.22143,141.20134 c -10.54254,5.54585 -4.25768,18.04065 -1.24528,20.77888 3.01239,2.73824 16.71381,1.9608 16.71381,1.9608 0.84428,3.83332 0.57924,7.45217 -1.04991,10.80731 0,0 -2.02548,-0.27609 -3.80777,0.38028 -1.78229,0.65637 -3.06877,2.33253 -2.57767,3.7749 0.49111,1.44235 0.48641,1.86491 3.27439,1.98043 2.78799,0.11552 7.20034,-1.69466 6.90473,-5.2482 -0.22042,-2.64978 4.86213,-14.7995 5.43805,-17.77395 -0.89958,-2.71475 -8.25314,-2.71198 -8.25314,-2.71198 0,0 -1.6817,-15.9936 -7.26236,-15.80206 -5.58066,0.19152 -8.13485,1.85359 -8.13485,1.85359 z"
         style="fill:#87aade;fill-opacity:1;stroke:none;stroke-width:0.26458332px;stroke-linecap:butt;stroke-linejoin:miter;stroke-opacity:1" />
      <path
         inkscape:connector-curvature="0"
         id="path884"
         d="m 77.107258,141.44913 c -3.741775,0.66818 -4.142677,12.96257 -4.142677,12.96257 l -7.617182,6.41447 c 0,0 -1.202713,4.00905 1.870888,5.87993 3.073598,1.87089 4.409945,0 4.409945,0 l -1.336347,-4.94448 7.884451,-5.34539 c 0,0 5.479026,-16.03618 -1.069078,-14.9671 z"
         style="fill:#87aade;fill-opacity:1;stroke:none;stroke-width:0.26458332px;stroke-linecap:butt;stroke-linejoin:miter;stroke-opacity:1" />
      <path
         id="path959"
         d="m 86.367336,94.404573 a 3.9687499,6.898065 0 0 0 -3.96875,6.898287 3.9687499,6.898065 0 0 0 3.96875,6.89829 3.9687499,6.898065 0 0 0 3.96875,-6.89829 3.9687499,6.898065 0 0 0 -3.96875,-6.898287 z m 15.686384,1.606619 a 1.8898809,4.3467263 0 0 0 -1.88981,4.346508 1.8898809,4.3467263 0 0 0 1.88981,4.34702 1.8898809,4.3467263 0 0 0 1.8898,-4.34702 1.8898809,4.3467263 0 0 0 -1.8898,-4.346508 z"
         style="fill:#435ec1;fill-opacity:1;stroke:none;stroke-width:1.76499999;stroke-miterlimit:4;stroke-dasharray:none;stroke-opacity:1"
         inkscape:connector-curvature="0" />
      <path
         sodipodi:nodetypes="ccssccc"
         inkscape:connector-curvature="0"
         id="path976-2"
         d="m 143.791,123.00754 c 0,0 -1.60361,2.40542 -0.26726,8.01808 1.33634,5.61266 13.89801,40.89224 3.20723,54.52299 -10.69078,13.63074 -19.24341,16.5707 -25.3906,19.51067 -6.1472,2.93998 -22.45065,5.07813 -22.45065,5.07813 0,0 31.53781,-4.54358 40.3577,-18.4416 17.41786,-23.77258 -1.34772,-57.89994 4.54358,-68.68827 z"
         style="fill:#5fd3bc;fill-opacity:1;stroke:none;stroke-width:0.26458332px;stroke-linecap:butt;stroke-linejoin:miter;stroke-opacity:1" />
      <path
         sodipodi:nodetypes="cscc"
         inkscape:connector-curvature="0"
         id="path1051"
         d="m 70.291885,161.76162 c 2.78362,0.43471 8.137205,-0.88871 9.604772,-3.02889 0.560004,-0.81667 -1.986254,-0.92448 -1.720321,-2.3165 z"
         style="fill:#5fd3bc;fill-opacity:1;stroke:none;stroke-width:0.26458332px;stroke-linecap:butt;stroke-linejoin:miter;stroke-opacity:1" />
      <ellipse
         ry="3.7951317"
         rx="2.1943958"
         cy="99.52282"
         cx="84.876686"
         id="path1054"
         style="fill:#ffffff;fill-opacity:1;stroke:none;stroke-width:1.76499999;stroke-miterlimit:4;stroke-dasharray:none;stroke-opacity:1" />
      <ellipse
         ry="1.3701636"
         rx="1.0394346"
         cy="105.03534"
         cx="88.540924"
         id="path1056"
         style="fill:#ffffff;fill-opacity:1;stroke:none;stroke-width:1.76499999;stroke-miterlimit:4;stroke-dasharray:none;stroke-opacity:1" />
      <ellipse
         ry="2.6458178"
         rx="1.3700911"
         cy="98.657013"
         cx="101.83633"
         id="path1058"
         style="fill:#ffffff;fill-opacity:1;stroke:none;stroke-width:1.76499999;stroke-miterlimit:4;stroke-dasharray:none;stroke-opacity:1" />
      <ellipse
         ry="0.8976934"
         rx="0.61421132"
         cy="102.89977"
         cx="102.87566"
         id="path1060"
         style="fill:#ffffff;fill-opacity:1;stroke:none;stroke-width:1.76499999;stroke-miterlimit:4;stroke-dasharray:none;stroke-opacity:1" />
    </g>
    <path
       style="fill:url(#linearGradient1456);fill-opacity:1;stroke:none;stroke-width:0.26458332px;stroke-linecap:butt;stroke-linejoin:miter;stroke-opacity:1"
       d="m 93.811399,24.38504 c 0,0 2.138574,6.147257 0.267684,13.363527 -1.753918,6.765102 -12.904208,4.839253 -16.273425,0.608229 0,0 0,-5.16e-4 0,-5.16e-4 -0.224594,-0.28208 -0.414483,-0.574204 -0.564825,-0.874882 -2.40543,-4.810849 -3.741888,-6.948929 -3.741888,-6.948929 0,0 1.871083,12.561634 -1.870689,18.976102 -2.975358,5.100621 -5.784463,8.171235 -10.84068,9.215974 -1.6491,-1.932752 -3.459734,-3.635391 -5.439979,-4.960937 -13.122978,-8.78431 -22.074105,-6.717419 -22.074105,-6.717419 0,0 7.072006,1.944518 11.999267,6.639388 1.260573,3.030323 4.041325,10.22927 4.164605,15.177886 C 45.697883,64.686973 41.22421,60.900513 36.096575,58.686305 19.465626,51.504757 9.0713537,54.339283 9.0713537,54.339286 c 0,0 16.4421843,2.267783 20.7889103,11.150221 4.346726,8.882441 0.566891,17.009298 0.566891,17.009298 0,0 5.215411,-0.319418 9.735322,2.396754 -2.274096,2.724761 -4.080888,4.703588 -4.080888,4.703588 0,0 2.939579,-2.04e-4 6.414079,1.870686 0.809501,0.435883 1.866662,1.281425 2.986897,2.377633 -0.402701,5.755167 -5.605859,11.518674 -5.605859,11.518674 0,0 6.935613,-0.85273 12.228195,2.17093 -1.86908,4.78836 -4.263821,6.91792 -4.263821,6.91792 0,0 0.188272,-0.0562 0.518313,-0.12143 0.220028,-0.0435 0.502828,-0.091 0.835607,-0.12816 1.8303,-0.20457 5.160912,-0.10109 7.733379,2.65513 0.214189,0.22949 0.441907,0.48809 0.678511,0.76636 -0.591111,6.71903 -6.958711,13.46288 -10.926982,15.5205 -5.10268,2.64583 -14.362946,6.0477 -14.362946,6.0477 0,0 12.535702,-0.22635 22.275641,-2.56987 3.53509,-0.16884 7.397303,-0.58341 10.666016,-1.48053 0.235021,2.79287 0.615468,4.71392 0.615468,4.71392 0,0 0.471152,2.9247 1.484146,5.98723 -0.0029,0.13546 -0.0062,0.26958 -0.0062,0.41445 0,3.34087 0.801503,7.6171 0.801503,7.6171 l -2.806031,6.94893 c 0,0 -1.065511,3.55451 1.376661,5.53145 0.379254,0.398 0.861381,0.6978 1.46761,0.84491 2.383586,0.97414 3.436482,-0.49661 3.436482,-0.49661 l -1.336352,-4.9444 c 2.78362,0.43471 8.137022,-0.88858 9.604581,-3.02876 0.560012,-0.81667 -1.986237,-0.92463 -1.720307,-2.31665 0,0 0.368665,-1.08487 0.799433,-2.65979 0.309303,0.003 0.529167,0 0.529167,0 0,0 8.552386,5.34532 18.174086,8.28528 2.470524,0.75489 5.063574,0.89066 7.554574,0.67903 2.92758,1.21266 8.68296,1.35874 12.28659,1.31568 0.0691,1.45918 -0.0689,2.92105 -0.43873,4.3863 0,0 -2.03941,0.14207 -3.65094,1.14721 -1.61155,1.00518 -2.53018,2.90758 -1.75597,4.2199 0.7742,1.31232 0.85588,1.72727 3.60908,1.27331 2.0633,-0.3402 4.79926,-1.92482 5.61516,-4.1367 -0.24241,1.3083 -0.65728,2.58312 -1.25883,3.82199 0,0 -2.02523,-0.27603 -3.80752,0.38034 -1.78229,0.65637 -3.06872,2.33259 -2.57762,3.77496 0.49111,1.44235 0.48623,1.86472 3.27422,1.98024 2.78798,0.11552 7.20061,-1.69471 6.905,-5.24826 -0.0628,-0.75492 0.31193,-2.29314 0.88315,-4.1584 0.55843,-0.99657 1.2813,-2.17911 1.90118,-2.83342 0.14654,-0.15468 0.32763,-0.29523 0.53123,-0.42323 3.7392,5.27785 7.41519,11.88431 7.54527,17.60823 0.24841,10.92967 -8.97918,9.62997 -34.957031,18.61747 -2.115709,0.63542 -4.197758,1.36527 -6.202207,2.22932 -2.58315,0.96587 -4.88257,1.89734 -6.93911,2.79415 l -0.0021,-5.2e-4 c 0,0 -11.626167,0.53462 -10.957988,-6.28076 0.354965,-3.62066 3.387905,-5.997 6.153113,-7.429 0.16266,-0.0842 0.324517,-0.16511 0.484724,-0.24288 2.242918,-1.08868 4.186825,-1.54874 4.186825,-1.54874 0,0 -15.90259,0.13326 -16.036229,9.75496 -0.13363,9.62171 10.28981,7.34994 10.28981,7.34994 0,0 -8.018158,3.07379 -18.04076,-2.53886 -10.022609,-5.61267 -12.561506,-8.01812 -12.561506,-8.01812 0,0 9.8889,10.69074 8.95346,16.3034 -0.93545,5.61267 -12.962517,11.62615 -12.962517,11.62615 0,0 6.414204,-0.66815 10.824144,3.34089 4.409951,4.00905 -4.276222,12.69535 -4.276225,12.69535 0,0 11.091632,-8.81989 15.635224,-2.00454 4.543578,6.8154 8.285281,13.2297 8.285281,13.2297 0,0 -0.133622,-12.56152 2.004529,-16.57057 2.138158,-4.00907 12.962516,1.06919 12.962516,1.06919 0,0 -3.158032,-2.90584 -5.392435,-5.8074 -0.203129,-0.26379 -0.398635,-0.52705 -0.583428,-0.78859 -0.739166,-1.04611 -1.306949,-2.05711 -1.507402,-2.89232 -0.80181,-3.34086 7.617108,-0.93535 7.617108,-0.93535 0,0 -6.781816,-4.84651 -8.018116,-7.21609 -1.603611,-3.07361 0.267165,-6.81561 0.267165,-6.81561 0,0 -2.004605,5.34553 6.280756,6.41461 8.285348,1.06907 10.690819,-6.54793 10.690819,-6.54793 0,0 -4.944206,4.9445 -8.819617,4.00907 -3.875399,-0.93546 -6.28116,-1.73728 -5.880261,-4.67725 0.05629,-0.41282 0.207439,-0.79869 0.421164,-1.15807 7.047177,-1.81788 17.197264,-3.50023 31.776874,-4.70927 18.4061,-1.52636 27.2812,-9.20616 30.67771,-18.97559 0.079,-0.22719 0.15478,-0.4553 0.2279,-0.68471 1.25211,-3.92867 1.64417,-8.17434 1.44435,-12.47934 3.12182,-16.19289 -5.70919,-41.26043 -6.81767,-45.91606 -1.00015,-4.20062 -0.35351,-6.60353 0.0351,-7.54734 1.3e-4,-3.2e-4 3.8e-4,-7.2e-4 5.2e-4,-10e-4 0.0731,-0.16048 0.14884,-0.31784 0.23151,-0.46922 0,0 -9.35399,1.6034 -18.70842,-0.80202 -9.35444,-2.40543 -8.82013,-10.42365 -8.82013,-10.42365 0,0 -12.29452,14.69979 -28.063409,18.9761 -0.739169,0.20045 -1.442831,0.36545 -2.11305,0.49765 -0.223237,0.044 -0.443553,0.0845 -0.659392,0.12143 -1.993683,0.34063 -3.67289,0.37969 -5.08961,0.20413 l 2.952274,-5.68544 c 1.05133,0.0401 2.181791,0.0257 3.496945,-0.0243 18.428762,-0.70014 24.300462,-8.7135 23.986132,-15.00012 -0.31433,-6.28662 -6.2575,-7.506 -6.2575,-7.506 0,0 2.95278,-14.18275 -5.485454,-21.652427 2.408594,-8.006421 5.005254,-19.845718 3.602364,-30.601232 C 100.2261,32.67049 93.811399,24.38504 93.811399,24.38504 Z m -15.308625,101.96535 0.57154,5.00435 c -0.253082,-0.0611 -0.497414,-0.12932 -0.730705,-0.20516 -0.12536,-0.0407 -0.247595,-0.0835 -0.367419,-0.12816 -0.945081,-0.35249 -1.719183,-0.82445 -2.354379,-1.3627 l 0.228928,-0.46251 c 2.135097,-1.79618 2.652032,-2.84582 2.652035,-2.84582 z m -5.463752,26.48934 c 0.0071,0.002 0.01412,0.005 0.02119,0.007 -0.01938,0.26085 -0.03595,0.49321 -0.04806,0.69401 0.0094,-0.20693 0.01875,-0.43464 0.02687,-0.70125 z m 47.880288,12.32018 c 0.22041,1.38028 0.28868,2.73088 0.19482,4.0504 -0.0248,-0.2264 -0.0687,-0.456 -0.13798,-0.68988 -0.18123,-0.61219 -0.17114,-1.83218 -0.0568,-3.36052 z"
       id="path867-7-5"
       inkscape:connector-curvature="0" />
    <path
       style="fill:url(#linearGradient1338);fill-opacity:1;stroke:none;stroke-width:0.26458332px;stroke-linecap:butt;stroke-linejoin:miter;stroke-opacity:1"
       d="m 93.811396,24.385091 c 0,0 1.202852,3.457755 1.014926,8.231023 0,0 0,5.16e-4 0,5.16e-4 -0.06267,1.59095 -0.279569,3.328109 -0.747242,5.131986 -1.870889,7.216274 -14.432818,4.543686 -16.838247,-0.267166 -2.40543,-4.81085 -3.741891,-6.948929 -3.741891,-6.948929 0,0 1.871083,12.561633 -1.870687,18.976101 -2.975359,5.100619 -5.784463,8.171236 -10.840681,9.215975 C 59.138519,56.791924 57.327775,55.089161 55.347596,53.763659 42.22462,44.97935 33.273491,47.04624 33.273491,47.04624 c 0,0 7.072003,1.944521 11.999268,6.639388 1.212465,2.914679 3.83098,9.679356 4.141866,14.603243 9.65e-4,0.01529 6.3e-4,0.02971 0.0016,0.04496 0.01084,0.179637 0.01685,0.355606 0.02119,0.529683 C 45.697883,64.687024 41.22421,60.900562 36.096574,58.686357 19.465624,51.504808 9.071351,54.339334 9.071351,54.339334 c 0,0 16.442187,2.267787 20.788912,11.150225 4.346726,8.88244 0.56689,17.009297 0.56689,17.009297 0,0 5.215409,-0.319418 9.735323,2.396752 -2.274096,2.724761 -4.080888,4.703591 -4.080888,4.703591 0,0 2.939579,-2.04e-4 6.414079,1.870686 0.8095,0.435882 1.866661,1.281424 2.986898,2.377633 -0.402704,5.755164 -5.605859,11.518672 -5.605859,11.518672 0,0 6.935611,-0.85273 12.228193,2.17093 -1.869081,4.78836 -4.263822,6.91793 -4.263822,6.91793 0,0 0.08372,-0.025 0.237195,-0.061 0.07674,-0.018 0.171106,-0.0387 0.28112,-0.0605 0.220027,-0.0435 0.502826,-0.091 0.835608,-0.12815 1.8303,-0.20457 5.160911,-0.10109 7.733378,2.65513 0.214187,0.22949 0.441908,0.48809 0.678511,0.76636 -0.59111,6.71903 -6.958713,13.46289 -10.926981,15.5205 -5.102678,2.64583 -14.362948,6.0477 -14.362948,6.0477 0,0 12.533927,-0.2263 22.273576,-2.56936 3.535654,-0.16877 7.398728,-0.58374 10.668082,-1.48104 0.23502,2.79287 0.615467,4.71392 0.615467,4.71392 0,0 0.471151,2.9247 1.484147,5.98723 -0.0029,0.13546 -0.0062,0.26959 -0.0062,0.41445 0,3.34087 0.801501,7.6171 0.801501,7.6171 l -2.80603,6.94893 c 0,0 -1.065513,3.55451 1.37666,5.53145 0.379255,0.398 0.86138,0.6978 1.467611,0.84491 2.383583,0.97414 3.436482,-0.49661 3.436482,-0.49661 l -1.336352,-4.9444 c 2.78362,0.43471 8.137014,-0.88858 9.604581,-3.02876 0.560004,-0.81667 -1.986241,-0.92463 -1.720308,-2.31665 0,0 0.368666,-1.08487 0.799434,-2.65979 0.309303,0.003 0.529167,0 0.529167,0 0,0 8.552384,5.34532 18.174084,8.28528 2.470528,0.75489 5.063578,0.89066 7.554578,0.67903 2.92758,1.21266 8.68296,1.35874 12.28659,1.31568 0.0691,1.45918 -0.0689,2.92105 -0.43874,4.3863 0,0 -2.0394,0.14207 -3.65094,1.14722 -1.61154,1.00517 -2.53017,2.90757 -1.75596,4.21989 0.7742,1.31232 0.85536,1.72727 3.60857,1.27331 2.06329,-0.3402 4.79977,-1.92482 5.61567,-4.1367 -0.24241,1.3083 -0.65728,2.58313 -1.25884,3.82199 0,0 -2.02523,-0.27603 -3.80751,0.38034 -1.78229,0.65637 -3.06872,2.33259 -2.57763,3.77496 0.49112,1.44235 0.48624,1.86472 3.27422,1.98024 2.78799,0.11552 7.20062,-1.69471 6.90501,-5.24825 -0.0628,-0.75493 0.31192,-2.29315 0.88315,-4.15841 0.55843,-0.99657 1.2813,-2.1791 1.90118,-2.83342 0.14654,-0.15468 0.32763,-0.29523 0.53123,-0.42323 3.7392,5.27785 7.41518,11.88431 7.54527,17.60823 0.24841,10.92967 -8.97919,9.62997 -34.957035,18.61747 -2.115706,0.63542 -4.197757,1.36527 -6.202204,2.22932 -2.583153,0.96588 -4.882573,1.89734 -6.939113,2.79414 l -0.0021,-5.1e-4 c 0,0 -11.62616,0.53463 -10.957987,-6.28075 0.354967,-3.62067 3.387903,-5.99701 6.153111,-7.42901 0.162661,-0.0842 0.324517,-0.16512 0.484727,-0.24288 2.242916,-1.08869 4.186825,-1.54874 4.186825,-1.54874 0,0 -15.902598,0.13326 -16.036231,9.75496 -0.133636,9.62171 10.289811,7.34994 10.289811,7.34994 0,0 -8.018153,3.0738 -18.040759,-2.53886 -10.022607,-5.61266 -12.561507,-8.01812 -12.561507,-8.01812 0,0 9.8889,10.69074 8.953458,16.3034 -0.935445,5.61267 -12.962516,11.62616 -12.962516,11.62616 0,0 6.414199,-0.66816 10.824145,3.34088 4.409945,4.00905 -4.276224,12.69535 -4.276224,12.69535 0,0 11.091637,-8.8199 15.635221,-2.00453 4.543581,6.81539 8.285282,13.22969 8.285282,13.22969 0,0 -0.133627,-12.56153 2.004529,-16.57057 2.138156,-4.00906 12.962516,1.06919 12.962516,1.06919 0,0 -3.158032,-2.90583 -5.392436,-5.8074 -0.203126,-0.26378 -0.398635,-0.52706 -0.583427,-0.78858 -0.739167,-1.04611 -1.306949,-2.05712 -1.5074,-2.89233 -0.80181,-3.34087 7.617105,-0.93534 7.617105,-0.93534 0,0 -6.781821,-4.84652 -8.018116,-7.2161 -1.603618,-3.0736 0.267168,-6.81561 0.267168,-6.81561 0,0 -2.004602,5.34553 6.280754,6.4146 8.285352,1.06908 10.690823,-6.54792 10.690823,-6.54792 0,0 -4.944211,4.94451 -8.819619,4.00905 -3.87541,-0.93543 -6.281168,-1.73726 -5.880261,-4.67723 0.05629,-0.41282 0.207436,-0.79868 0.421161,-1.15807 7.047177,-1.81788 17.197269,-3.50023 31.776879,-4.70927 26.16467,-2.16976 33.06318,-16.77388 32.34996,-32.13964 3.12182,-16.19289 -5.70919,-41.26043 -6.81767,-45.91606 -1.00015,-4.20061 -0.35352,-6.60353 0.0351,-7.54734 1.3e-4,-3.2e-4 3.8e-4,-7.2e-4 5.1e-4,-10e-4 0.0731,-0.16048 0.14885,-0.31783 0.23151,-0.46922 0,0 -9.35398,1.6034 -18.70841,-0.80202 -9.35444,-2.40543 -8.82014,-10.42365 -8.82014,-10.42365 0,0 -12.29451,14.69979 -28.063404,18.9761 -0.246224,0.0668 -0.489154,0.12964 -0.727604,0.18862 -2.918185,0.72176 -5.257263,0.86721 -7.134448,0.63459 l 2.952274,-5.68544 c 1.05133,0.0401 2.181794,0.0257 3.496945,-0.0243 18.428757,-0.70014 24.300467,-8.7135 23.986137,-15.00012 -0.31433,-6.28662 -6.2575,-7.506 -6.2575,-7.506 0,0 2.95277,-14.182751 -5.485456,-21.652426 2.408596,-8.006423 5.005256,-19.845718 3.602366,-30.601231 C 100.2261,32.670544 93.811396,24.385091 93.811396,24.385091 Z m -15.308625,101.965349 0.571541,5.00435 c -1.46172,-0.3531 -2.586902,-0.96252 -3.452502,-1.69602 l 0.228927,-0.46251 c 2.1351,-1.79618 2.652034,-2.84582 2.652034,-2.84582 z m -5.463749,26.48934 c 0.0071,0.002 0.01412,0.005 0.02119,0.007 -0.01938,0.26085 -0.03595,0.49322 -0.04806,0.69401 0.0094,-0.20693 0.01874,-0.43464 0.02687,-0.70125 z m 47.880278,12.32018 c 0.22048,1.38063 0.2888,2.73159 0.19482,4.05143 -0.0247,-0.22673 -0.0686,-0.45667 -0.13797,-0.69091 -0.18123,-0.61219 -0.17114,-1.83217 -0.0568,-3.36052 z"
       id="path867-7-3"
       inkscape:connector-curvature="0" />
    <text
       xml:space="preserve"
       style="font-style:normal;font-variant:normal;font-weight:normal;font-stretch:normal;font-size:10.58333302px;line-height:1.25;font-family:C059;-inkscape-font-specification:C059;letter-spacing:0px;word-spacing:0px;fill:#5da1bb;fill-opacity:1;stroke:none;stroke-width:0.26458332;"
       x="114.85522"
       y="73.429047"
       id="text1484"><tspan
         sodipodi:role="line"
         id="tspan1482"
         x="114.85522"
         y="73.429047"
         style="font-style:normal;font-variant:normal;font-weight:normal;font-stretch:normal;font-size:50.79999924px;font-family:Caveat;-inkscape-font-specification:Caveat;stroke-width:0.26458332;fill:#5da1bb;fill-opacity:1;">404</tspan></text>
    <path
       style="fill:#ffffff;fill-opacity:1;stroke:none;stroke-width:1.76499999;stroke-miterlimit:4;stroke-dasharray:none;stroke-opacity:1"
       d="m 127.68403,91.849173 c -3.84975,0 -6.94893,3.099181 -6.94893,6.948929 v 0.288872 c 0,0.780425 0.12915,1.529116 0.36432,2.228286 -1.19856,0.57343 -1.9515,1.71809 -1.95182,2.96726 0,1.84508 1.61536,3.34083 3.60805,3.34088 1.34636,-0.001 2.58004,-0.69629 3.1998,-1.80299 0.55239,0.14044 1.13129,0.21549 1.72858,0.21549 h 14.96705 c 3.84975,0 6.94892,-3.09918 6.94892,-6.948926 v -0.288872 c 0,-3.849748 -3.09917,-6.948929 -6.94892,-6.948929 z"
       id="rect1488"
       inkscape:connector-curvature="0"
       sodipodi:nodetypes="sssccccssssss" />
    <ellipse
       style="fill:#ffffff;fill-opacity:1;stroke:none;stroke-width:1.76499999;stroke-miterlimit:4;stroke-dasharray:none;stroke-opacity:1"
       id="path1495"
       cx="116.45884"
       cy="106.97137"
       rx="1.8708867"
       ry="1.7372519" />
    <text
       xml:space="preserve"
       style="font-style:normal;font-variant:normal;font-weight:normal;font-stretch:normal;font-size:10.58333302px;line-height:1.25;font-family:C059;-inkscape-font-specification:C059;letter-spacing:2.11666656px;word-spacing:0px;fill:#cccccc;fill-opacity:1;stroke:none;stroke-width:0.26458332"
       x="125.34356"
       y="102.93939"
       id="text1499"><tspan
         sodipodi:role="line"
         id="tspan1497"
         x="125.34356"
         y="102.93939"
         style="letter-spacing:2.11666656px;fill:#cccccc;stroke-width:0.26458332"
         dx="0">...?</tspan></text>
    <text
       xml:space="preserve"
       style="font-style:normal;font-variant:normal;font-weight:bold;font-stretch:normal;font-size:8.46666622px;line-height:1.25;font-family:Caveat;-inkscape-font-specification:'Caveat Bold';letter-spacing:0px;word-spacing:0px;fill:#5581c3;fill-opacity:1;stroke:none;stroke-width:0.26458332"
       x="135.10037"
       y="82.092377"
       id="text1503"><tspan
         sodipodi:role="line"
         id="tspan1501"
         x="135.10037"
         y="82.092377"
         style="font-style:normal;font-variant:normal;font-weight:bold;font-stretch:normal;font-size:8.46666622px;font-family:Caveat;-inkscape-font-specification:'Caveat Bold';fill:#5581c3;fill-opacity:1;stroke-width:0.26458332">page no found</tspan></text>
  </g>
</svg>
